<?xml version="1.0" standalone="no"?>
<!DOCTYPE svg PUBLIC "-//W3C//DTD SVG 20010904//EN"
 "http://www.w3.org/TR/2001/REC-SVG-20010904/DTD/svg10.dtd">
<svg version="1.0" xmlns="http://www.w3.org/2000/svg"
 width="2000.000000pt" height="2000.000000pt" viewBox="0 0 2000.000000 2000.000000"
 preserveAspectRatio="xMidYMid meet">

<g transform="translate(0.000000,2000.000000) scale(0.100000,-0.100000)"
fill="#000000" stroke="none">
<path d="M9771 14904 c-23 -58 -41 -109 -41 -113 0 -4 69 -34 153 -66 295
-113 413 -183 575 -339 195 -188 268 -359 242 -559 -14 -109 -59 -284 -119
-465 -73 -217 -420 -1132 -431 -1132 -3 0 -16 39 -29 88 -29 106 -109 326
-164 447 -229 511 -601 952 -1042 1237 -367 238 -774 378 -1210 418 -1194 108
-2401 -589 -3069 -1773 -242 -429 -403 -917 -472 -1427 -25 -188 -30 -615 -10
-807 83 -783 381 -1439 881 -1938 415 -415 929 -674 1510 -762 170 -25 622
-25 780 1 417 67 819 218 1181 442 58 35 106 64 108 64 6 0 -317 -836 -379
-980 -123 -291 -256 -521 -363 -627 -98 -98 -258 -160 -443 -170 -188 -10
-326 20 -637 139 -101 38 -185 68 -187 66 -12 -12 -83 -214 -77 -219 4 -3 331
-130 727 -282 396 -152 1190 -457 1765 -677 575 -221 1073 -412 1106 -425 l62
-23 42 110 c23 60 40 111 38 113 -2 2 -84 35 -183 73 -266 102 -387 168 -522
281 -76 64 -169 185 -217 283 -45 90 -55 186 -36 334 28 230 101 463 337 1079
91 237 172 450 181 474 l15 44 32 -114 c259 -914 866 -1619 1668 -1939 581
-231 1217 -253 1837 -61 724 223 1375 721 1825 1396 340 511 549 1068 632
1690 22 166 25 695 5 855 -98 771 -385 1389 -877 1885 -318 321 -709 555
-1136 680 -239 69 -414 95 -694 102 -365 9 -624 -31 -986 -151 -245 -81 -562
-240 -767 -383 l-23 -16 24 64 c140 369 351 909 394 1009 112 258 242 481 336
574 64 64 155 115 267 151 76 25 101 28 235 29 200 1 249 -10 588 -136 103
-39 189 -69 191 -67 12 14 83 215 78 220 -4 3 -826 320 -1827 704 -1001 383
-1823 699 -1826 701 -4 2 -25 -44 -48 -102z m-1341 -1599 c427 -76 791 -266
1096 -571 194 -193 366 -455 477 -724 l36 -86 -620 -1614 c-341 -888 -635
-1656 -655 -1706 l-35 -92 -102 -47 c-222 -104 -451 -169 -697 -200 -655 -80
-1326 178 -1758 679 -304 352 -482 751 -559 1253 -24 155 -24 585 0 741 52
343 136 618 278 907 264 539 673 966 1180 1229 258 134 509 211 819 250 83 10
448 -3 540 -19z m4110 -1570 c667 -80 1224 -462 1562 -1070 142 -254 236 -540
285 -865 24 -161 24 -578 0 -739 -24 -161 -54 -298 -93 -431 -270 -926 -965
-1643 -1824 -1885 -311 -87 -687 -98 -999 -29 -162 36 -275 76 -437 154 -341
163 -606 395 -823 720 -109 163 -251 450 -251 506 0 9 288 766 639 1683 352
916 643 1673 646 1682 3 9 59 41 123 72 368 175 792 248 1172 202z"/>
</g>
</svg>
